<?xml version="1.0" encoding="UTF-8" standalone="no"?>
<!-- Created with Inkscape (http://www.inkscape.org/) -->

<svg
   xmlns:dc="http://purl.org/dc/elements/1.1/"
   xmlns:cc="http://creativecommons.org/ns#"
   xmlns:rdf="http://www.w3.org/1999/02/22-rdf-syntax-ns#"
   xmlns:svg="http://www.w3.org/2000/svg"
   xmlns="http://www.w3.org/2000/svg"
   xmlns:sodipodi="http://sodipodi.sourceforge.net/DTD/sodipodi-0.dtd"
   xmlns:inkscape="http://www.inkscape.org/namespaces/inkscape"
   width="640"
   height="300"
   viewBox="0 0 640 300"
   id="svg2"
   version="1.1"
   inkscape:version="0.91 r13725"
   sodipodi:docname="dynd_logo.svg"
   inkscape:export-filename="dynd_logo.png"
   inkscape:export-xdpi="180"
   inkscape:export-ydpi="180">
  <defs
     id="defs4">
    <inkscape:path-effect
       nr_y="3"
       nr_x="11"
       is_visible="true"
       id="path-effect5150"
       effect="construct_grid" />
    <inkscape:path-effect
       effect="construct_grid"
       id="path-effect5147"
       is_visible="true"
       nr_x="11"
       nr_y="3" />
    <inkscape:path-effect
       nr_y="3"
       nr_x="11"
       is_visible="true"
       id="path-effect5144"
       effect="construct_grid" />
    <inkscape:path-effect
       effect="construct_grid"
       id="path-effect5136"
       is_visible="true"
       nr_x="11"
       nr_y="3" />
    <inkscape:path-effect
       nr_y="3"
       nr_x="11"
       is_visible="true"
       id="path-effect5133"
       effect="construct_grid" />
    <inkscape:path-effect
       effect="construct_grid"
       id="path-effect5130"
       is_visible="true"
       nr_x="11"
       nr_y="3" />
    <inkscape:path-effect
       nr_y="3"
       nr_x="11"
       is_visible="true"
       id="path-effect4897"
       effect="construct_grid" />
    <inkscape:path-effect
       effect="construct_grid"
       id="path-effect4893"
       is_visible="true"
       nr_x="11"
       nr_y="3" />
    <inkscape:path-effect
       nr_y="3"
       nr_x="11"
       is_visible="true"
       id="path-effect4889"
       effect="construct_grid" />
    <inkscape:path-effect
       effect="construct_grid"
       id="path-effect4875"
       is_visible="true"
       nr_x="11"
       nr_y="3" />
    <inkscape:path-effect
       nr_y="3"
       nr_x="11"
       is_visible="true"
       id="path-effect4871"
       effect="construct_grid" />
    <inkscape:path-effect
       effect="construct_grid"
       id="path-effect4867"
       is_visible="true"
       nr_x="11"
       nr_y="3" />
    <inkscape:path-effect
       nr_y="3"
       nr_x="11"
       is_visible="true"
       id="path-effect4843"
       effect="construct_grid" />
    <inkscape:path-effect
       effect="construct_grid"
       id="path-effect4839"
       is_visible="true"
       nr_x="11"
       nr_y="3" />
    <inkscape:path-effect
       nr_y="3"
       nr_x="11"
       is_visible="true"
       id="path-effect4835"
       effect="construct_grid" />
    <inkscape:path-effect
       effect="construct_grid"
       id="path-effect4821"
       is_visible="true"
       nr_x="11"
       nr_y="3" />
    <inkscape:path-effect
       nr_y="3"
       nr_x="11"
       is_visible="true"
       id="path-effect4817"
       effect="construct_grid" />
    <inkscape:path-effect
       effect="construct_grid"
       id="path-effect4813"
       is_visible="true"
       nr_x="11"
       nr_y="3" />
    <inkscape:path-effect
       nr_y="3"
       nr_x="11"
       is_visible="true"
       id="path-effect4686"
       effect="construct_grid" />
    <inkscape:path-effect
       effect="construct_grid"
       id="path-effect4682"
       is_visible="true"
       nr_x="11"
       nr_y="3" />
    <inkscape:path-effect
       nr_y="3"
       nr_x="11"
       is_visible="true"
       id="path-effect4678"
       effect="construct_grid" />
    <inkscape:path-effect
       effect="construct_grid"
       id="path-effect4654"
       is_visible="true"
       nr_x="11"
       nr_y="3" />
    <inkscape:path-effect
       nr_y="3"
       nr_x="11"
       is_visible="true"
       id="path-effect4650"
       effect="construct_grid" />
    <inkscape:path-effect
       effect="construct_grid"
       id="path-effect4646"
       is_visible="true"
       nr_x="11"
       nr_y="3" />
    <inkscape:path-effect
       effect="construct_grid"
       id="path-effect4609"
       is_visible="true"
       nr_x="11"
       nr_y="3" />
    <inkscape:path-effect
       nr_y="3"
       nr_x="11"
       is_visible="true"
       id="path-effect4605"
       effect="construct_grid" />
    <inkscape:path-effect
       effect="construct_grid"
       id="path-effect4601"
       is_visible="true"
       nr_x="11"
       nr_y="3" />
    <inkscape:path-effect
       effect="construct_grid"
       id="path-effect4534"
       is_visible="true"
       nr_x="11"
       nr_y="3" />
    <inkscape:path-effect
       nr_y="3"
       nr_x="11"
       is_visible="true"
       id="path-effect4530"
       effect="construct_grid" />
    <inkscape:path-effect
       effect="construct_grid"
       id="path-effect4526"
       is_visible="true"
       nr_x="11"
       nr_y="3" />
    <inkscape:path-effect
       nr_y="3"
       nr_x="11"
       is_visible="true"
       id="path-effect4393"
       effect="construct_grid" />
    <inkscape:path-effect
       nr_y="3"
       nr_x="11"
       is_visible="true"
       id="path-effect4369"
       effect="construct_grid" />
    <inkscape:path-effect
       effect="construct_grid"
       id="path-effect4365"
       is_visible="true"
       nr_x="11"
       nr_y="3" />
    <inkscape:path-effect
       effect="construct_grid"
       id="path-effect4185"
       is_visible="true"
       nr_x="11"
       nr_y="3" />
    <inkscape:path-effect
       nr_y="3"
       nr_x="11"
       is_visible="true"
       id="path-effect4181"
       effect="construct_grid" />
    <inkscape:path-effect
       effect="construct_grid"
       id="path-effect4177"
       is_visible="true"
       nr_x="11"
       nr_y="3" />
    <inkscape:path-effect
       effect="construct_grid"
       id="path-effect4173"
       is_visible="true"
       nr_x="11"
       nr_y="3" />
    <inkscape:path-effect
       nr_y="3"
       nr_x="11"
       is_visible="true"
       id="path-effect4169"
       effect="construct_grid" />
    <inkscape:path-effect
       effect="construct_grid"
       id="path-effect3355"
       is_visible="true"
       nr_x="11"
       nr_y="3" />
    <filter
       style="color-interpolation-filters:sRGB"
       inkscape:label="Blur"
       id="filter4255">
      <feGaussianBlur
         stdDeviation="1 1"
         result="blur"
         id="feGaussianBlur4257" />
    </filter>
  </defs>
  <sodipodi:namedview
     id="base"
     pagecolor="#ffffff"
     bordercolor="#666666"
     borderopacity="1.0"
     inkscape:pageopacity="0.0"
     inkscape:pageshadow="2"
     inkscape:zoom="1"
     inkscape:cx="356.02024"
     inkscape:cy="42.13768"
     inkscape:document-units="px"
     inkscape:current-layer="layer1"
     showgrid="false"
     units="px"
     inkscape:window-width="1920"
     inkscape:window-height="1032"
     inkscape:window-x="-4"
     inkscape:window-y="-4"
     inkscape:window-maximized="1" />
  <metadata
     id="metadata7">
    <rdf:RDF>
      <cc:Work
         rdf:about="">
        <dc:format>image/svg+xml</dc:format>
        <dc:type
           rdf:resource="http://purl.org/dc/dcmitype/StillImage" />
        <dc:title></dc:title>
      </cc:Work>
    </rdf:RDF>
  </metadata>
  <g
     inkscape:label="Layer 1"
     inkscape:groupmode="layer"
     id="layer1"
     transform="translate(0,-752.36216)">
    <g
       id="g4399"
       transform="translate(5.2856896,-6.8640463)">
      <path
         sodipodi:nodetypes="ccc"
         inkscape:original-d="m 123.12148,892.00526 -11.36394,49.7992 38.63413,0"
         inkscape:path-effect="#path-effect4177"
         inkscape:connector-curvature="0"
         id="path4175"
         d="m 111.75754,941.80446 34.09182,-149.3976 m 4.54231,149.3976 34.09182,-149.3976 m 4.54231,149.3976 34.09182,-149.3976 m 4.54231,149.3976 34.09182,-149.3976 m 4.54231,149.3976 34.09182,-149.3976 m 4.54231,149.3976 34.09182,-149.3976 m 4.54231,149.3976 34.09182,-149.3976 m 4.54231,149.3976 34.09182,-149.3976 m 4.54231,149.3976 34.09182,-149.3976 m 4.54231,149.3976 34.09182,-149.3976 m 4.54231,149.3976 34.09182,-149.3976 m 4.54231,149.3976 34.09182,-149.3976 m -459.06725,149.3976 424.97543,0 m -413.61149,-49.7992 424.97543,0 m -413.61149,-49.7992 424.97543,0 m -413.61149,-49.7992 424.97543,0"
         style="fill:none;fill-rule:evenodd;stroke:#bab7f2;stroke-width:13.90828514;stroke-linecap:round;stroke-linejoin:miter;stroke-miterlimit:4;stroke-dasharray:none;stroke-opacity:1" />
      <path
         style="fill:none;fill-rule:evenodd;stroke:#ceccf6;stroke-width:13.90828514;stroke-linecap:round;stroke-linejoin:miter;stroke-miterlimit:4;stroke-dasharray:none;stroke-opacity:1"
         d="M 98.644687,951.63911 132.73649,802.24148 m 4.54232,149.39763 34.0918,-149.39763 m 4.54232,149.39763 34.0918,-149.39763 m 4.54233,149.39763 34.09179,-149.39763 m 4.54233,149.39763 34.0918,-149.39763 m 4.54232,149.39763 34.0918,-149.39763 m 4.54232,149.39763 34.0918,-149.39763 m 4.54233,149.39763 34.0918,-149.39763 m 4.54232,149.39763 34.0918,-149.39763 m 4.54232,149.39763 34.0918,-149.39763 m 4.54233,149.39763 34.0918,-149.39763 m 4.54232,149.39763 34.0918,-149.39763 m -459.067153,149.39763 424.975353,0 m -413.61142,-49.79921 424.97535,0 m -413.61142,-49.79921 424.97536,0 m -413.61142,-49.79921 424.97535,0"
         id="path4167"
         inkscape:connector-curvature="0"
         inkscape:path-effect="#path-effect4169"
         inkscape:original-d="m 110.00862,901.8399 -11.363933,49.79921 38.634123,0"
         sodipodi:nodetypes="ccc" />
      <g
         transform="matrix(3.0907301,0,0,3.0907301,-648.77504,-1957.5439)"
         style="font-style:normal;font-weight:normal;font-size:40px;line-height:125%;font-family:sans-serif;letter-spacing:0px;word-spacing:0px;fill:#000000;fill-opacity:1;stroke:none;stroke-width:1px;stroke-linecap:butt;stroke-linejoin:miter;stroke-opacity:1"
         id="g4157">
        <path
           inkscape:connector-curvature="0"
           d="m 246.28906,897.14734 q 5.89844,0 9.57031,0.89844 3.67188,0.89843 6.83594,3.24218 3.20313,2.34375 4.80469,6.25 1.60156,3.86719 1.60156,9.17969 0,5.27344 -1.21094,10.07813 -1.21093,4.80468 -3.47656,8.86718 -2.26562,4.02344 -5.42969,7.03125 -3.16406,2.96875 -6.13281,4.57032 -2.96875,1.60156 -6.64062,2.42187 -3.67188,0.78125 -8.55469,0.78125 l -16.40625,0 0.42969,-1.91406 q 1.48437,-0.23438 2.22656,-0.74219 0.74219,-0.54687 1.25,-1.48437 0.50781,-0.9375 0.9375,-2.26563 0.42969,-1.36719 1.28906,-5.23437 l 6.64063,-30.07813 q 0.39062,-1.79687 0.625,-3.4375 0.23437,-1.67969 0.23437,-2.85156 0,-1.83594 -0.9375,-2.53906 -0.9375,-0.74219 -2.89062,-0.85938 l 0.42968,-1.91406 14.80469,0 z m -13.71094,49.72656 q 1.13282,0.11719 4.33594,0.11719 3.94531,0 7.14844,-0.85938 3.24219,-0.85937 5.9375,-2.73437 2.73437,-1.91406 4.96094,-5.07813 2.22656,-3.16406 3.59375,-6.40625 1.40625,-3.28125 2.1875,-7.03125 0.78125,-3.75 0.78125,-7.92968 0,-8.16407 -3.82813,-12.26563 -3.78906,-4.14062 -11.28906,-4.14062 -1.71875,0 -3.71094,0.11718 l -10.11719,46.21094 z"
           style="font-style:italic;font-variant:normal;font-weight:normal;font-stretch:normal;font-size:80px;font-family:Cambria;-inkscape-font-specification:Cambria"
           id="path4159" />
        <path
           d="m 278.96984,921.48328 c -0.42584,-1.95028 -0.72657,-2.98958 -0.96094,-3.75782 -0.23437,-0.76824 -0.67448,-1.55468 -1.19531,-1.94531 -0.55398,-0.35038 -0.85896,-0.54253 -2.03084,-0.74219 l 0.42969,-1.91406 8.15583,0 6.39185,28.18521 c 8.80209,-12.03125 11.15503,-17.78157 11.15503,-22.9899 0,-1.22395 -0.23316,-2.09152 -0.78125,-2.5 -0.55208,-0.41146 -0.84375,-0.57812 -2.15625,-0.78125 l 0.39062,-1.91406 11.10283,0 c -0.15469,0.83969 -0.40162,1.92748 -0.60259,2.46136 -1.36479,3.62563 -3.01847,6.86156 -5.17992,10.74177 -2.13542,3.88021 -4.76563,8.125 -7.89063,12.73437 -3.09896,4.60937 -6.54948,9.40104 -10.35156,14.375 -2.91667,3.82813 -5.36458,6.71875 -7.34375,8.67188 -1.53646,1.48437 -2.95573,2.60416 -4.25781,3.35937 -1.27605,0.78125 -2.51303,1.32813 -3.71094,1.64063 -1.22396,0.33854 -2.51302,0.50781 -3.86719,0.50781 -0.70313,0 -1.4974,-0.0781 -2.38281,-0.23438 -0.88542,-0.13021 -1.64063,-0.3125 -2.26563,-0.54687 l 1.67969,-7.30469 c 0,0 0.69008,0.54167 2.26831,1.61391 1.28135,0.75974 1.91473,1.10369 2.90135,1.24357 0.98662,0.13989 1.77045,-0.058 2.3694,-0.24029 0.59896,-0.15625 1.22396,-0.42969 1.875,-0.82031 0.67709,-0.39063 1.48438,-1.01563 2.42188,-1.875 0.96354,-0.85938 2.04427,-2.00521 3.24219,-3.4375 1.19791,-1.40625 4.83716,-6.29396 6.32153,-8.29917 z"
           style="font-style:italic;font-variant:normal;font-weight:normal;font-stretch:normal;font-size:80px;font-family:Cambria;-inkscape-font-specification:Cambria"
           id="path4161"
           inkscape:connector-curvature="0"
           sodipodi:nodetypes="szcccccsscccsccccccscccczcccccs" />
        <path
           d="m 359.91114,897.14734 -0.42968,1.91406 q -1.48438,0.3125 -2.14844,0.70313 -0.625,0.39062 -1.17188,1.17187 -0.50781,0.78125 -1.05468,2.46094 -0.50782,1.64062 -1.32813,5.39062 l -9.17969,41.67969 -5.3125,0 -11.40625,-33.51562 q -2.07031,-6.01563 -3.63281,-11.99219 l -0.50781,0 q -0.23438,1.99219 -1.28906,7.61719 -1.05469,5.58593 -2.22657,10.9375 l -3.4375,15.58593 q -0.35156,1.64063 -0.58593,3.16407 -0.23438,1.52343 -0.23438,2.92968 0,1.75782 0.85938,2.5 0.89843,0.70313 2.96875,0.85938 l -0.42969,1.91406 -13.67188,0 0.42969,-1.91406 q 1.48438,-0.23438 2.22656,-0.74219 0.74219,-0.54687 1.25,-1.48437 0.50782,-0.9375 0.9375,-2.26563 0.42969,-1.36719 1.28907,-5.23437 l 6.64062,-30.07813 q 0.39063,-1.67969 0.625,-3.20312 0.23438,-1.52344 0.23438,-3.08594 0,-1.83594 -0.9375,-2.53906 -0.9375,-0.74219 -2.89063,-0.85938 l 0.42969,-1.91406 12.46094,0 10.3125,30.42969 q 2.22656,6.5625 3.4375,11.09375 l 0.42968,0 q 0.3125,-2.38282 1.40625,-7.92969 1.13282,-5.54688 2.07032,-9.6875 l 2.73437,-12.30469 q 0.27344,-1.28906 0.54688,-3.04687 0.3125,-1.75782 0.3125,-3.24219 0,-1.83594 -0.9375,-2.53906 -0.9375,-0.74219 -2.89063,-0.85938 l 0.42969,-1.91406 13.67187,0 z"
           style="font-style:italic;font-variant:normal;font-weight:normal;font-stretch:normal;font-size:80px;font-family:Cambria;-inkscape-font-specification:Cambria"
           id="path4163"
           inkscape:connector-curvature="0" />
        <path
           d="m 379.40789,897.14734 q 5.89844,0 9.57031,0.89844 3.67188,0.89843 6.83594,3.24218 3.20313,2.34375 4.80469,6.25 1.60156,3.86719 1.60156,9.17969 0,5.27344 -1.21094,10.07813 -1.21093,4.80468 -3.47656,8.86718 -2.26562,4.02344 -5.42969,7.03125 -3.16406,2.96875 -6.13281,4.57032 -2.96875,1.60156 -6.64062,2.42187 -3.67188,0.78125 -8.55469,0.78125 l -16.40625,0 0.42969,-1.91406 q 1.48437,-0.23438 2.22656,-0.74219 0.74219,-0.54687 1.25,-1.48437 0.50781,-0.9375 0.9375,-2.26563 0.42969,-1.36719 1.28906,-5.23437 l 6.64063,-30.07813 q 0.39062,-1.79687 0.625,-3.4375 0.23437,-1.67969 0.23437,-2.85156 0,-1.83594 -0.9375,-2.53906 -0.9375,-0.74219 -2.89062,-0.85938 l 0.42968,-1.91406 14.80469,0 z m -13.71094,49.72656 q 1.13282,0.11719 4.33594,0.11719 3.94531,0 7.14844,-0.85938 3.24219,-0.85937 5.9375,-2.73437 2.73437,-1.91406 4.96094,-5.07813 2.22656,-3.16406 3.59375,-6.40625 1.40625,-3.28125 2.1875,-7.03125 0.78125,-3.75 0.78125,-7.92968 0,-8.16407 -3.82813,-12.26563 -3.78906,-4.14062 -11.28906,-4.14062 -1.71875,0 -3.71094,0.11718 l -10.11719,46.21094 z"
           style="font-style:italic;font-variant:normal;font-weight:normal;font-stretch:normal;font-size:80px;font-family:Cambria;-inkscape-font-specification:Cambria"
           id="path4165"
           inkscape:connector-curvature="0" />
      </g>
    </g>
  </g>
</svg>
